<svg width="44" height="28" viewBox="0 0 44 28" fill="none" xmlns="http://www.w3.org/2000/svg">
<g id="flag/KZ" clip-path="url(#clip0_2725_11475)">
<path id="Vector" d="M0 0H44V28H0V0Z" fill="#36B6CC"/>
<path id="Vector_2" d="M22 19.5918C25.24 19.5918 27.8666 17.0846 27.8666 13.9918C27.8666 10.8991 25.24 8.39185 22 8.39185C18.7599 8.39185 16.1333 10.8991 16.1333 13.9918C16.1333 17.0846 18.7599 19.5918 22 19.5918Z" fill="#FFD400"/>
<path id="Vector_3" d="M22 20.5907L19.607 24.0047L18.9981 19.9357L15.2928 22.0234L16.5965 18.11L12.308 18.4538L15.2585 15.4655L11.2359 13.9919L15.2499 12.5182L12.2994 9.52987L16.5879 9.87373L15.2842 5.96028L18.9895 8.03982L19.5984 3.97081L21.9914 7.38484L24.3844 3.97081L24.9934 8.03982L28.6986 5.96028L27.3949 9.87373L31.6834 9.52987L28.7415 12.5264L32.7556 13.9919L28.7415 15.4655L31.692 18.4538L27.4035 18.11L28.7072 22.0234L25.002 19.9439L24.393 24.0129C24.393 24.0047 22 20.5907 22 20.5907ZM22 20.5252C25.7825 20.5252 28.853 17.5942 28.853 13.9837C28.853 10.3731 25.7825 7.45034 22 7.45034C18.2176 7.45034 15.147 10.3813 15.147 13.9919C15.147 17.6024 18.2176 20.5252 22 20.5252ZM1.95557 2.31701C1.95557 2.05502 2.16141 1.85034 2.44446 1.85034H3.41366C3.68812 1.85034 3.90254 2.04683 3.90254 2.31701V3.24215C3.91112 3.49596 3.6967 3.70882 3.42223 3.70882H2.44446C2.17857 3.70882 1.95557 3.50414 1.95557 3.25034V2.31701ZM1.95557 6.05853C1.95557 5.79654 2.16141 5.59186 2.44446 5.59186H3.41366C3.68812 5.59186 3.90254 5.78835 3.90254 6.05853V6.98368C3.91112 7.23748 3.6967 7.45034 3.42223 7.45034H2.44446C2.17857 7.45034 1.95557 7.24566 1.95557 6.99186V6.05853ZM1.95557 9.79186C1.95557 9.52987 2.16141 9.3252 2.44446 9.3252H3.41366C3.68812 9.3252 3.90254 9.52169 3.90254 9.79186V10.717C3.91112 10.9708 3.6967 11.1837 3.42223 11.1837H2.44446C2.17857 11.1837 1.95557 10.979 1.95557 10.7252V9.79186ZM1.95557 13.5252C1.95557 13.2632 2.16141 13.0585 2.44446 13.0585H3.41366C3.68812 13.0585 3.90254 13.255 3.90254 13.5252V14.4503C3.91112 14.7041 3.6967 14.917 3.42223 14.917H2.44446C2.17857 14.917 1.95557 14.7123 1.95557 14.4585V13.5252ZM1.95557 17.2667C1.95557 17.0047 2.16141 16.8 2.44446 16.8H3.41366C3.68812 16.8 3.90254 16.9965 3.90254 17.2667V18.1919C3.91112 18.4457 3.6967 18.6585 3.42223 18.6585H2.44446C2.17857 18.6585 1.95557 18.4538 1.95557 18.2V17.2667ZM1.95557 21C1.95557 20.7381 2.16141 20.5334 2.44446 20.5334H3.41366C3.68812 20.5334 3.90254 20.7299 3.90254 21V21.9252C3.91112 22.179 3.6967 22.3919 3.42223 22.3919H2.44446C2.17857 22.3919 1.95557 22.1872 1.95557 21.9334V21ZM1.95557 24.7334C1.95557 24.4714 2.16141 24.2667 2.44446 24.2667H3.41366C3.68812 24.2667 3.90254 24.4632 3.90254 24.7334V25.6585C3.91112 25.9123 3.6967 26.1252 3.42223 26.1252H2.44446C2.17857 26.1252 1.95557 25.9205 1.95557 25.6667V24.7334ZM3.91112 22.8667C3.91112 22.6047 4.11697 22.4 4.40001 22.4H5.36921C5.64368 22.4 5.8581 22.5965 5.8581 22.8667V23.7919C5.86668 24.0457 5.65225 24.2585 5.37779 24.2585H4.40001C4.13412 24.2585 3.91112 24.0539 3.91112 23.8001V22.8667ZM3.91112 19.1334C3.91112 18.8714 4.11697 18.6667 4.40001 18.6667H5.36921C5.64368 18.6667 5.8581 18.8632 5.8581 19.1334V20.0585C5.86668 20.3123 5.65225 20.5252 5.37779 20.5252H4.40001C4.13412 20.5252 3.91112 20.3205 3.91112 20.0667V19.1334ZM3.91112 15.3919C3.91112 15.1299 4.11697 14.9252 4.40001 14.9252H5.36921C5.64368 14.9252 5.8581 15.1217 5.8581 15.3919V16.317C5.86668 16.5708 5.65225 16.7837 5.37779 16.7837H4.40001C4.13412 16.7837 3.91112 16.579 3.91112 16.3252V15.3919ZM3.91112 11.6585C3.91112 11.3965 4.11697 11.1919 4.40001 11.1919H5.36921C5.64368 11.1919 5.8581 11.3884 5.8581 11.6585V12.5837C5.86668 12.8375 5.65225 13.0503 5.37779 13.0503H4.40001C4.13412 13.0503 3.91112 12.8457 3.91112 12.5919V11.6585ZM3.91112 7.9252C3.91112 7.66321 4.11697 7.45853 4.40001 7.45853H5.36921C5.64368 7.45853 5.8581 7.65502 5.8581 7.9252V8.85034C5.86668 9.10414 5.65225 9.31701 5.37779 9.31701H4.40001C4.13412 9.31701 3.91112 9.11233 3.91112 8.85853V7.9252ZM3.91112 4.19186C3.91112 3.92987 4.11697 3.7252 4.40001 3.7252H5.36921C5.64368 3.7252 5.8581 3.92169 5.8581 4.19186V5.11701C5.86668 5.37081 5.65225 5.58368 5.37779 5.58368H4.40001C4.13412 5.58368 3.91112 5.379 3.91112 5.1252V4.19186Z" fill="#FFD400"/>
</g>
<defs>
<clipPath id="clip0_2725_11475">
<rect width="44" height="28" fill="white"/>
</clipPath>
</defs>
</svg>
