<svg width="33" height="37" viewBox="0 0 33 37" fill="none" xmlns="http://www.w3.org/2000/svg">
<g id="Group 47088">
<path id="path66" d="M0 8.05371L4.80346 16.0627V20.9479L0.00561925 28.9411L0 8.05371Z" fill="#5B57A2"/>
<path id="path68" d="M18.4434 13.1483L22.9444 10.5749L32.156 10.5669L18.4434 18.4029V13.1483Z" fill="#D90751"/>
<path id="path70" d="M18.4177 8.00649L18.4431 18.6101L13.6284 15.8505V0L18.4177 8.00649Z" fill="#FAB718"/>
<path id="path72" d="M32.1557 10.5669L22.9438 10.5749L18.4177 8.00649L13.6284 0L32.1557 10.5669Z" fill="#ED6F26"/>
<path id="path74" d="M18.4431 28.9855V23.841L13.6284 21.1338L13.6311 37L18.4431 28.9855Z" fill="#63B22F"/>
<path id="path76" d="M22.9331 26.4356L4.80313 16.0627L0 8.05371L32.1365 26.4251L22.9331 26.4356Z" fill="#1487C9"/>
<path id="path78" d="M13.6318 37L18.4432 28.9854L22.933 26.4355L32.1363 26.425L13.6318 37Z" fill="#017F36"/>
<path id="path80" d="M0.00585938 28.9411L13.6682 21.1341L9.07499 18.5052L4.8037 20.9479L0.00585938 28.9411Z" fill="#984995"/>
</g>
</svg>
