<svg width="44" height="29" viewBox="0 0 44 29" fill="none" xmlns="http://www.w3.org/2000/svg">
<g clip-path="url(#clip0_2725_11477)">
<path d="M0 0.000366211H44V28.9998H0V0.000366211Z" fill="#D80027"/>
<path d="M0 20.174H44V28.9997H0V20.174Z" fill="#6DA544"/>
<path d="M0 0.000366211H44V8.88007H0V0.000366211Z" fill="#338AF3"/>
<path d="M0 10.6664H44V18.2836H0V10.6664Z" fill="white"/>
<path d="M0 0.000366211H44V8.88007H0V0.000366211Z" fill="#338AF3"/>
<path d="M16.2156 4.43972C16.2156 3.0817 17.181 1.94705 18.4703 1.6688C18.2683 1.62505 18.0621 1.60292 17.8554 1.60278C16.2705 1.60278 14.9858 2.87287 14.9858 4.43972C14.9858 6.00657 16.2705 7.27665 17.8554 7.27665C18.0666 7.27665 18.2722 7.25346 18.4703 7.21064C17.181 6.93239 16.2156 5.79773 16.2156 4.43972ZM20.1662 5.72917L20.3605 6.32024H20.9891L20.4805 6.68566L20.6748 7.27665L20.1662 6.91132L19.6576 7.27665L19.8519 6.68566L19.3433 6.32024H19.9719L20.1662 5.72917ZM22.1726 5.72917L22.3668 6.32024H22.9955L22.4869 6.68566L22.6812 7.27665L22.1726 6.91132L21.664 7.27665L21.8583 6.68566L21.3498 6.32024H21.9783L22.1726 5.72917ZM24.179 5.72917L24.3732 6.32024H25.0019L24.4934 6.68566L24.6876 7.27665L24.179 6.91132L23.6704 7.27665L23.8646 6.68566L23.3561 6.32024H23.9847L24.179 5.72917ZM26.1854 5.72917L26.3798 6.32024H27.0084L26.4997 6.68566L26.694 7.27665L26.1854 6.91132L25.6768 7.27665L25.8712 6.68566L25.3625 6.32024H25.9911L26.1854 5.72917ZM28.1919 5.72917L28.3861 6.32024H29.0147L28.5061 6.68566L28.7004 7.27665L28.1919 6.91132L27.6833 7.27665L27.8775 6.68566L27.369 6.32024H27.9975L28.1919 5.72917ZM22.1726 3.66598L22.3668 4.25697H22.9955L22.4869 4.6223L22.6812 5.21337L22.1726 4.84812L21.664 5.21337L21.8583 4.6223L21.3498 4.25697H21.9783L22.1726 3.66598ZM24.179 3.66598L24.3732 4.25697H25.0019L24.4934 4.6223L24.6876 5.21337L24.179 4.84812L23.6704 5.21337L23.8646 4.6223L23.3561 4.25697H23.9847L24.179 3.66598ZM26.1854 3.66598L26.3798 4.25697H27.0084L26.4997 4.6223L26.694 5.21337L26.1854 4.84812L25.6768 5.21337L25.8712 4.6223L25.3625 4.25697H25.9911L26.1854 3.66598ZM28.1919 3.66598L28.3861 4.25697H29.0147L28.5061 4.6223L28.7004 5.21337L28.1919 4.84812L27.6833 5.21337L27.8775 4.6223L27.369 4.25697H27.9975L28.1919 3.66598ZM24.179 1.60278L24.3732 2.19377H25.0019L24.4934 2.5591L24.6876 3.15018L24.179 2.78485L23.6704 3.15018L23.8646 2.5591L23.3561 2.19377H23.9847L24.179 1.60278ZM26.1854 1.60278L26.3798 2.19377H27.0084L26.4997 2.5591L26.694 3.15018L26.1854 2.78485L25.6768 3.15018L25.8712 2.5591L25.3625 2.19377H25.9911L26.1854 1.60278ZM28.1919 1.60278L28.3861 2.19377H29.0147L28.5061 2.5591L28.7004 3.15018L28.1919 2.78485L27.6833 3.15018L27.8775 2.5591L27.369 2.19377H27.9975L28.1919 1.60278Z" fill="white"/>
</g>
<defs>
<clipPath id="clip0_2725_11477">
<rect width="44" height="29" fill="white"/>
</clipPath>
</defs>
</svg>
