<svg width="16" height="16" viewBox="0 0 16 16" fill="none" xmlns="http://www.w3.org/2000/svg">
<g id="attachment" clip-path="url(#clip0_2725_10581)">
<path id="Vector" d="M8.33341 14.6667C6.30675 14.6667 4.66675 13.0267 4.66675 11.0001L4.66675 4.00008C4.66675 2.52675 5.86008 1.33342 7.33341 1.33342C8.80675 1.33342 10.0001 2.52675 10.0001 4.00008L10.0001 9.66675C10.0001 10.5867 9.25341 11.3334 8.33341 11.3334C7.41341 11.3334 6.66675 10.5867 6.66675 9.66675L6.66675 4.66675L8.00008 4.66675L8.00008 9.72675C8.00008 10.0934 8.66675 10.0934 8.66675 9.72675L8.66675 4.00008C8.66675 3.26675 8.06675 2.66675 7.33341 2.66675C6.60008 2.66675 6.00008 3.26675 6.00008 4.00008L6.00008 11.0001C6.00008 12.2867 7.04675 13.3334 8.33341 13.3334C9.62008 13.3334 10.6667 12.2867 10.6667 11.0001L10.6667 4.66675L12.0001 4.66675L12.0001 11.0001C12.0001 13.0267 10.3601 14.6667 8.33341 14.6667Z" fill="#69E278"/>
</g>
<defs>
<clipPath id="clip0_2725_10581">
<rect width="16" height="16" fill="white" transform="translate(0 16) rotate(-90)"/>
</clipPath>
</defs>
</svg>
