<svg width="32" height="32" viewBox="0 0 32 32" fill="none" xmlns="http://www.w3.org/2000/svg">
<g id="logos:telegram" clip-path="url(#clip0_1335_16880)">
<path id="Vector" d="M16 0.000488281C11.7575 0.000488281 7.685 1.68724 4.6875 4.68674C1.68691 7.68743 0.000831175 11.7569 0 16.0005C0 20.2422 1.6875 24.3147 4.6875 27.3142C7.685 30.3137 11.7575 32.0005 16 32.0005C20.2425 32.0005 24.315 30.3137 27.3125 27.3142C30.3125 24.3147 32 20.2422 32 16.0005C32 11.7587 30.3125 7.68624 27.3125 4.68674C24.315 1.68724 20.2425 0.000488281 16 0.000488281Z" fill="url(#paint0_linear_1335_16880)"/>
<path id="Vector_2" d="M7.24262 15.8315C11.9076 13.7995 15.0176 12.4598 16.5726 11.8125C21.0176 9.96429 21.9401 9.64329 22.5426 9.63242C22.6751 9.63029 22.9701 9.66304 23.1626 9.81867C23.3226 9.94992 23.3676 10.1274 23.3901 10.252C23.4101 10.3765 23.4376 10.6603 23.4151 10.8818C23.1751 13.4118 22.1326 19.5513 21.6026 22.385C21.3801 23.584 20.9376 23.986 20.5101 24.0253C19.5801 24.1108 18.8751 23.4113 17.9751 22.8215C16.5676 21.8983 15.7726 21.3238 14.4051 20.423C12.8251 19.382 13.8501 18.8098 14.7501 17.8748C14.9851 17.63 19.0801 13.9063 19.1576 13.5685C19.1676 13.5263 19.1776 13.3688 19.0826 13.2858C18.9901 13.2025 18.8526 13.231 18.7526 13.2535C18.6101 13.2855 16.3626 14.7725 12.0026 17.7143C11.3651 18.1528 10.7876 18.3665 10.2676 18.3553C9.69762 18.343 8.59762 18.0323 7.78012 17.7668C6.78012 17.441 5.98262 17.2688 6.05262 16.7155C6.08762 16.4275 6.48512 16.1328 7.24262 15.8315Z" fill="white"/>
</g>
<defs>
<linearGradient id="paint0_linear_1335_16880" x1="16" y1="0.000488281" x2="16" y2="32.0005" gradientUnits="userSpaceOnUse">
<stop stop-color="#2AABEE"/>
<stop offset="1" stop-color="#229ED9"/>
</linearGradient>
<clipPath id="clip0_1335_16880">
<rect width="32" height="32" fill="white" transform="translate(0 0.000488281)"/>
</clipPath>
</defs>
</svg>
