<svg width="161" height="50" viewBox="0 0 161 50" fill="none" xmlns="http://www.w3.org/2000/svg">
<path d="M2.60095 37.399H2.76427C3.36642 37.8624 4.0549 38.2011 4.78946 38.3953H4.86568C8.64658 39.4242 13.862 38.2183 14.665 38.0986C10.013 36.7375 6.7711 34.2523 3.53733 30.7491C0.442383 27.5071 0.442383 31.0784 0.442383 31.0784C0.506918 32.1471 0.72322 33.2011 1.08478 34.2088L1.17189 34.4347C1.40726 35.1125 1.67987 35.7768 1.98849 36.4245C1.99382 36.436 2.0002 36.4469 2.00755 36.4572L2.55195 37.3255L2.60095 37.399Z" fill="#35634F"/>
<path d="M30.793 20.8438C30.793 20.8438 44.2861 26.0374 40.5623 43.2651C43.6157 40.8408 45.8389 37.5264 46.9237 33.7816C44.7243 25.9993 30.793 20.8438 30.793 20.8438Z" fill="#35634F"/>
<path d="M25.3112 0.613626L24.9002 0.586406C23.897 0.503134 22.887 0.575673 21.906 0.801446C20.9124 1.07241 19.9857 1.54599 19.184 2.1924C16.1598 4.48163 7.44112 12.7267 30.788 20.8465C30.788 20.8465 44.7193 26.002 46.9296 33.7843C48.2674 30.1756 48.7416 26.3039 48.3142 22.4791C47.8868 18.6543 46.5696 14.9827 44.4683 11.7584C42.3669 8.53408 39.5397 5.84667 36.213 3.91137C32.8864 1.97608 29.1528 0.846677 25.3112 0.613626Z" fill="#69E278"/>
<path d="M13.1053 21.3581L13.1788 21.2928C9.36251 19.3411 8.44519 11.6868 6.93446 9.99638C5.42373 8.306 3.33594 11.6623 3.33594 11.6623V11.7358C6.58332 19.2676 12.354 21.1458 13.1053 21.3581Z" fill="#35634F"/>
<path d="M40.5514 43.295C40.6766 42.658 42.4133 30.0332 27.9321 26.579C22.8099 25.3484 17.8379 23.5603 13.1052 21.2465C12.3539 21.0342 6.57234 19.156 3.36035 11.6133C2.13387 13.461 1.16327 15.4663 0.474998 17.5745C0.00858821 19.0119 0.019236 20.5616 0.505354 21.9925C0.991471 23.4234 1.92702 24.6588 3.17253 25.5147C5.7884 27.3221 9.51758 29.1595 14.7166 30.9587C14.7166 30.9587 33.8933 38.0523 32.4316 48.3253C35.4431 47.2044 38.2055 45.5037 40.5623 43.3195L40.5514 43.295Z" fill="#69E278"/>
<path d="M2.12453 36.5713L1.97754 36.4243C4.02893 40.4652 7.15716 43.8605 11.0168 46.2354C14.8764 48.6102 19.3173 49.8722 23.849 49.882H25.0984C24.222 45.6547 21.4373 40.0119 12.9555 37.5213H12.7677C12.079 37.622 7.17117 38.3216 4.02178 37.4587C2.8132 37.0967 2.45117 36.8653 2.12453 36.5713Z" fill="#69E278"/>
<path d="M71.1251 36.4246H63.4871L62.1914 18.9138H66.7807L67.4749 32.9214H68.3486L73.9342 18.9138H78.6461L71.1251 36.4246Z" fill="white"/>
<path d="M89.5998 18.9139C92.7111 18.9139 94.2817 20.2749 94.2817 22.8989C94.2724 23.4049 94.2214 23.9093 94.1292 24.4069L91.987 36.4247H81.5997C78.4612 36.4247 76.8906 35.1562 76.8906 32.6492C76.9006 32.1731 76.9507 31.6987 77.0403 31.231L77.1329 30.5968C77.7045 27.3957 79.8195 25.7652 83.5024 25.7652H89.4501L89.7821 23.8026C89.7821 23.7128 89.8121 23.623 89.8121 23.5304C89.8121 23.016 89.51 22.7437 88.9057 22.7437H79.7896L80.4837 18.9111L89.5998 18.9139ZM88.8675 28.9364H82.9281C82.7793 28.921 82.6289 28.9355 82.4858 28.979C82.3426 29.0225 82.2096 29.0942 82.0945 29.1897C81.9794 29.2853 81.8846 29.4029 81.8155 29.5356C81.7464 29.6683 81.7045 29.8135 81.6923 29.9626L81.3602 31.8353C81.3525 31.8859 81.3416 31.9359 81.3275 31.985C81.3275 32.4097 81.6596 32.5893 82.2939 32.5893H88.2415L88.8675 28.9364Z" fill="white"/>
<path d="M99.9838 11.7576H104.423L100.106 36.4246H95.6367L99.9838 11.7576Z" fill="white"/>
<path d="M122.296 18.9138L119.185 36.4246H109.252C106.084 36.4246 104.543 35.0963 104.543 32.4396C104.553 31.9328 104.603 31.4276 104.693 30.9289L106.808 18.9138H111.245L109.067 31.5331C109.044 31.6219 109.034 31.7136 109.037 31.8053C109.037 32.3171 109.339 32.5893 109.941 32.5893H115.407L117.791 18.9138H122.296Z" fill="white"/>
<path d="M130.868 15.0483L130.174 18.9136H133.92L133.375 22.0222H129.698L127.885 32.1971C127.861 32.2961 127.851 32.3977 127.855 32.4993C127.855 32.9811 128.127 33.2233 128.701 33.2233H131.086L130.514 36.4244H126.189C124.107 36.4244 123.11 35.6677 123.11 34.1597C123.112 33.9058 123.142 33.6529 123.2 33.4057L125.193 22.0222H123.745L124.254 18.9136H125.734L126.431 15.0483H130.868Z" fill="white"/>
<path d="M136.484 18.9138H140.924L137.864 36.4246H133.405L136.484 18.9138ZM137.752 11.7576H142.189L141.558 15.2581H137.118L137.752 11.7576Z" fill="white"/>
<path d="M151.278 23.1683L154.961 18.9138H160.133L153.241 26.6907L158.372 36.4137H153.058L150.222 29.9326L145.148 36.4246H139.895L148.349 26.6417L144.212 18.9138H149.384L151.278 23.1683Z" fill="white"/>
</svg>
