<svg width="25" height="26" viewBox="0 0 25 26" fill="none" xmlns="http://www.w3.org/2000/svg">
<g id="Group 4">
<g id="znak">
<path id="Vector" d="M1.23455 18.8854H1.31621C1.61728 19.1171 1.96152 19.2864 2.3288 19.3835H2.36691C4.25735 19.898 6.86504 19.2951 7.26654 19.2352C4.94058 18.5547 3.31962 17.3121 1.70274 15.5604C0.155274 13.9395 0.155273 15.7251 0.155273 15.7251C0.187541 16.2594 0.295692 16.7865 0.476471 17.2903L0.520024 17.4033C0.637707 17.7421 0.774016 18.0743 0.928326 18.3981C0.93099 18.4039 0.934179 18.4093 0.937853 18.4145L1.21005 18.8486L1.23455 18.8854Z" fill="#35634F"/>
<path id="Vector_2" d="M15.3301 10.6079C15.3301 10.6079 22.0766 13.2047 20.2147 21.8185C21.7414 20.6064 22.853 18.9492 23.3954 17.0768C22.2957 13.1857 15.3301 10.6079 15.3301 10.6079Z" fill="#35634F"/>
<path id="Vector_3" d="M12.5892 0.492726L12.3837 0.479116C11.8821 0.43748 11.3771 0.47375 10.8866 0.586636C10.3898 0.722119 9.92641 0.958906 9.52556 1.28211C8.01348 2.42672 3.65417 6.54921 15.3275 10.6091C15.3275 10.6091 22.2932 13.1868 23.3983 17.078C24.0672 15.2737 24.3043 13.3378 24.0906 11.4254C23.8769 9.513 23.2183 7.67722 22.1677 6.06508C21.117 4.45294 19.7034 3.10924 18.0401 2.14159C16.3768 1.17395 14.51 0.609251 12.5892 0.492726Z" fill="#69E278"/>
<path id="Vector_4" d="M6.48622 10.8651L6.52297 10.8324C4.61483 9.85656 4.15618 6.02941 3.40082 5.18422C2.64546 4.33904 1.60156 6.01716 1.60156 6.01716V6.05391C3.22525 9.81982 6.11058 10.7589 6.48622 10.8651Z" fill="#35634F"/>
<path id="Vector_5" d="M20.2092 21.8334C20.2718 21.515 21.1401 15.2026 13.8996 13.4755C11.3385 12.8602 8.8525 11.9661 6.48617 10.8093C6.11053 10.7031 3.21975 9.76403 1.61376 5.99268C1.00052 6.91653 0.515224 7.91918 0.171092 8.97328C-0.0621119 9.69199 -0.056788 10.4668 0.18627 11.1823C0.429327 11.8977 0.897101 12.5154 1.51985 12.9433C2.82778 13.8471 4.69236 14.7657 7.29189 15.6654C7.29189 15.6654 16.8802 19.2121 16.1493 24.3486C17.6551 23.7882 19.0363 22.9378 20.2147 21.8457L20.2092 21.8334Z" fill="#69E278"/>
<path id="Vector_6" d="M0.996346 18.4714L0.922852 18.3979C1.94854 20.4184 3.51265 22.116 5.44246 23.3034C7.37226 24.4909 9.59269 25.1219 11.8586 25.1268H12.4833C12.045 23.0131 10.6527 20.1918 6.4118 18.9464H6.31789C5.97355 18.9968 3.51965 19.3466 1.94497 18.9151C1.34068 18.7341 1.15967 18.6184 0.996346 18.4714Z" fill="#69E278"/>
</g>
</g>
</svg>
