                <svg width="15" height="12" viewBox="0 0 15 12" fill="none" xmlns="http://www.w3.org/2000/svg">
                    <path d="M8.66699 0C5.35366 0 2.66699 2.68667 2.66699 6H0.666992L3.26033 8.59333L3.30699 8.68667L6.00033 6H4.00033C4.00033 3.42 6.08699 1.33333 8.66699 1.33333C11.247 1.33333 13.3337 3.42 13.3337 6C13.3337 8.58 11.247 10.6667 8.66699 10.6667C7.38033 10.6667 6.21366 10.14 5.37366 9.29333L4.42699 10.24C5.51366 11.3267 7.00699 12 8.66699 12C11.9803 12 14.667 9.31333 14.667 6C14.667 2.68667 11.9803 0 8.66699 0ZM8.00033 3.33333V6.66667L10.8537 8.36L11.3337 7.55333L9.00033 6.16667V3.33333H8.00033Z" fill="#fff"/>
                </svg>