<svg xmlns="http://www.w3.org/2000/svg" width="140" height="21" viewBox="0 0 140 21" fill="none">
  <g clip-path="url(#clip0_2781_6022)">
    <path d="M7.5459 2.25137L0.646517 14.0616C-1.1502 17.1248 1.00586 21 4.45555 21H18.2543C21.704 21 23.8601 17.1248 22.0634 14.0616L15.164 2.25137C13.4391 -0.738086 9.27075 -0.738086 7.5459 2.25137ZM14.3375 2.76806L21.2728 14.6152C22.243 16.276 21.0931 18.4166 19.1886 18.4166H5.31797C3.41346 18.4166 2.22763 16.276 3.23379 14.6152L10.1691 2.76806C11.1034 1.14416 13.4032 1.14416 14.3375 2.76806Z" fill="#DAAB6B"/>
    <path d="M11.6066 5.24075L7.00697 13.1019C6.28828 14.3198 7.15071 15.8699 8.51621 15.8699H17.7154C19.0809 15.8699 19.9433 14.3198 19.2246 13.1019L14.625 5.24075C13.9423 4.05973 12.2893 4.05973 11.6066 5.24075ZM14.5891 7.12299L17.6076 12.253C17.8951 12.7328 17.5357 13.3233 17.0326 13.3233H10.9957C10.4567 13.3233 10.1333 12.7328 10.4207 12.253L13.4392 7.12299C13.6907 6.64321 14.3376 6.64321 14.5891 7.12299Z" fill="#DAAB6B"/>
    <path d="M33.2033 15.7224C31.6941 15.7224 30.4364 15.2426 29.4662 14.2461C28.496 13.2496 28.0288 11.9948 28.0288 10.4447C28.0288 8.89458 28.5319 7.63975 29.5021 6.64327C30.5083 5.64678 31.766 5.16699 33.3111 5.16699C34.3173 5.16699 35.2516 5.42534 36.0422 5.90513C36.8686 6.38492 37.4795 7.08615 37.8748 7.93501L35.9703 9.0053C35.3594 7.93501 34.461 7.41831 33.3471 7.41831C32.4847 7.41831 31.8019 7.71356 31.227 8.30407C30.6879 8.85768 30.4005 9.59581 30.4005 10.4816C30.4005 11.3673 30.6879 12.0686 31.227 12.6591C31.766 13.2496 32.4487 13.5448 33.2752 13.5448C33.8142 13.5448 34.3173 13.3972 34.8204 13.102C35.3235 12.8067 35.6828 12.4376 35.8984 11.9579L37.8029 13.102C37.3717 13.9139 36.7608 14.5782 35.9344 15.058C35.1079 15.5009 34.2095 15.7224 33.2033 15.7224Z" fill="#2FAD6F"/>
    <path d="M48.8347 10.2601C48.8347 10.5922 48.7987 10.9244 48.7628 11.3304H41.2885C41.4322 12.0316 41.7915 12.6221 42.2946 13.0281C42.7977 13.434 43.4805 13.6555 44.3069 13.6555C45.4928 13.6555 46.5708 13.3233 47.541 12.6221L48.4753 14.3567C47.2535 15.2794 45.8162 15.7592 44.1991 15.7592C43.3008 15.7592 42.5102 15.6115 41.8275 15.3163C41.1447 15.021 40.5698 14.6151 40.1386 14.1353C39.7073 13.6186 39.3839 13.065 39.2043 12.4745C38.9887 11.847 38.8809 11.2196 38.8809 10.5184C38.8809 8.96831 39.348 7.71348 40.2823 6.7539C41.2525 5.75742 42.4743 5.24072 43.9835 5.24072C45.385 5.24072 46.5708 5.6836 47.4692 6.60628C48.3675 7.45513 48.8347 8.67306 48.8347 10.2601ZM43.9476 7.19679C43.2648 7.19679 42.6899 7.41823 42.1868 7.8242C41.7197 8.23018 41.3963 8.78378 41.2525 9.48501H46.4989C46.3911 8.78378 46.1396 8.23018 45.6724 7.8242C45.2053 7.41823 44.6303 7.19679 43.9476 7.19679Z" fill="#2FAD6F"/>
    <path d="M53.0032 15.5009H50.6675V5.42534H52.9673V6.8278C53.2188 6.3111 53.65 5.90513 54.189 5.60987C54.7281 5.31462 55.3749 5.16699 56.0576 5.16699C57.1357 5.16699 58.034 5.53606 58.7886 6.2742C59.5433 7.01233 59.9026 8.04573 59.9026 9.37437V15.5378H57.5309V10.0387C57.5309 9.22675 57.3513 8.56242 56.956 8.08263C56.5607 7.60284 56.0576 7.3814 55.3749 7.3814C54.6921 7.3814 54.1172 7.63975 53.65 8.11954C53.2188 8.63624 52.9673 9.26365 52.9673 10.0756L53.0032 15.5009Z" fill="#2FAD6F"/>
    <path d="M78.4807 10.2601C78.4807 10.5922 78.4447 10.9244 78.4088 11.3304H70.9345C71.0782 12.0316 71.4375 12.6221 71.9406 13.0281C72.4437 13.434 73.1264 13.6555 73.9529 13.6555C75.1388 13.6555 76.2168 13.3233 77.187 12.6221L78.1213 14.3567C76.8995 15.2794 75.4622 15.7592 73.8451 15.7592C72.9468 15.7592 72.1562 15.6115 71.4735 15.3163C70.7907 15.021 70.2158 14.6151 69.7846 14.1353C69.3533 13.6186 69.0299 13.065 68.8503 12.4745C68.6347 11.847 68.5269 11.2196 68.5269 10.5184C68.5269 8.96831 68.994 7.71348 69.9283 6.7539C70.8985 5.75742 72.1203 5.24072 73.6295 5.24072C75.031 5.24072 76.2168 5.6836 77.1152 6.60628C78.0494 7.45513 78.4807 8.67306 78.4807 10.2601ZM73.6295 7.19679C72.9468 7.19679 72.3718 7.41823 71.8687 7.8242C71.4016 8.23018 71.0782 8.78378 70.9345 9.48501H76.1809C76.0731 8.78378 75.8215 8.23018 75.3544 7.8242C74.8872 7.41823 74.3123 7.19679 73.6295 7.19679Z" fill="#2FAD6F"/>
    <path d="M82.6847 15.5009H80.313V5.42534H82.5768V6.8278C83.1877 5.7206 84.0861 5.16699 85.3079 5.16699C85.7031 5.16699 86.0984 5.24081 86.4937 5.38843L86.2781 7.71356C85.8469 7.56594 85.4875 7.49212 85.1282 7.49212C84.3736 7.49212 83.7627 7.75047 83.3315 8.26717C82.9003 8.78386 82.6487 9.55891 82.6487 10.5923V15.5009H82.6847Z" fill="#2FAD6F"/>
    <path d="M92.0998 15.7224C90.5906 15.7224 89.3329 15.2426 88.3627 14.2461C87.3924 13.2496 86.9253 11.9948 86.9253 10.4447C86.9253 8.89458 87.4284 7.63975 88.3986 6.64327C89.4048 5.64678 90.6625 5.16699 92.2076 5.16699C93.2138 5.16699 94.1481 5.42534 94.9386 5.90513C95.7651 6.38492 96.376 7.08615 96.7713 7.93501L94.8668 9.0053C94.2559 7.93501 93.3575 7.41831 92.2436 7.41831C91.3812 7.41831 90.6984 7.71356 90.1234 8.30407C89.5844 8.85768 89.297 9.59581 89.297 10.4816C89.297 11.3673 89.5844 12.0686 90.1234 12.6591C90.6625 13.2496 91.3452 13.5448 92.1717 13.5448C92.7107 13.5448 93.2138 13.3972 93.7169 13.102C94.22 12.8067 94.5793 12.4376 94.7949 11.9579L96.6994 13.102C96.2682 13.9139 95.6573 14.5782 94.8308 15.058C94.0043 15.5009 93.106 15.7224 92.0998 15.7224Z" fill="#2FAD6F"/>
    <path d="M100.688 15.5009H98.3521V5.42534H100.616V6.8278C101.227 5.7206 102.125 5.16699 103.347 5.16699C103.742 5.16699 104.137 5.24081 104.533 5.38843L104.317 7.71356C103.886 7.56594 103.527 7.49212 103.167 7.49212C102.413 7.49212 101.802 7.75047 101.371 8.26717C100.939 8.78386 100.688 9.55891 100.688 10.5923V15.5009Z" fill="#2FAD6F"/>
    <path d="M114.882 10.2601C114.882 10.5922 114.846 10.9244 114.81 11.3304H107.336C107.48 12.0316 107.839 12.6221 108.342 13.0281C108.845 13.434 109.528 13.6555 110.354 13.6555C111.54 13.6555 112.618 13.3233 113.588 12.6221L114.523 14.3567C113.301 15.2794 111.864 15.7592 110.246 15.7592C109.348 15.7592 108.558 15.6115 107.875 15.3163C107.192 15.021 106.617 14.6151 106.186 14.1353C105.755 13.6186 105.431 13.065 105.252 12.4745C105.036 11.847 104.928 11.2196 104.928 10.5184C104.928 8.96831 105.395 7.71348 106.33 6.7539C107.3 5.75742 108.522 5.24072 110.031 5.24072C111.432 5.24072 112.618 5.6836 113.517 6.60628C114.415 7.45513 114.882 8.67306 114.882 10.2601ZM110.031 7.19679C109.348 7.19679 108.773 7.41823 108.27 7.8242C107.803 8.23018 107.48 8.78378 107.336 9.48501H112.582C112.474 8.78378 112.223 8.23018 111.756 7.8242C111.253 7.41823 110.678 7.19679 110.031 7.19679Z" fill="#2FAD6F"/>
    <path d="M124.153 6.71693V1.40234H126.489V15.5377H124.189V14.209C123.363 15.2424 122.321 15.7591 121.063 15.7591C119.661 15.7591 118.476 15.2424 117.577 14.2459C116.643 13.2125 116.176 11.9577 116.176 10.4445C116.176 8.96825 116.643 7.71342 117.577 6.68002C118.512 5.64663 119.661 5.16684 121.063 5.16684C122.321 5.16684 123.327 5.68354 124.153 6.71693ZM121.386 13.5447C122.249 13.5447 122.931 13.2494 123.47 12.6589C124.009 12.0684 124.261 11.3303 124.261 10.4814C124.261 9.63257 123.974 8.89444 123.435 8.30393C122.931 7.71342 122.213 7.41816 121.386 7.41816C120.524 7.41816 119.841 7.71342 119.338 8.30393C118.799 8.89444 118.547 9.63257 118.547 10.4814C118.547 11.3303 118.799 12.0684 119.338 12.6589C119.841 13.2494 120.56 13.5447 121.386 13.5447Z" fill="#2FAD6F"/>
    <path d="M130.154 4.20731C129.723 4.20731 129.364 4.05968 129.076 3.76443C128.789 3.46917 128.645 3.10011 128.645 2.65722C128.645 2.21434 128.789 1.84527 129.076 1.58693C129.364 1.29167 129.723 1.14404 130.154 1.14404C130.585 1.14404 130.945 1.29167 131.196 1.58693C131.484 1.88218 131.628 2.25125 131.628 2.65722C131.628 3.10011 131.484 3.46917 131.196 3.76443C130.945 4.05968 130.585 4.20731 130.154 4.20731ZM131.304 5.42524V15.5008H128.932V5.42524H131.304Z" fill="#2FAD6F"/>
    <path d="M139.245 13.028L140 14.9102C139.245 15.4638 138.275 15.7591 137.161 15.7591C134.933 15.7591 133.783 14.4305 133.783 11.8101L133.819 1.84521H136.155V5.42518H139.461V7.45506H136.155V11.6993C136.155 12.9173 136.622 13.5078 137.592 13.5078C138.131 13.5447 138.67 13.3602 139.245 13.028Z" fill="#2FAD6F"/>
    <path d="M67.1974 13.028L67.952 14.9102C67.1974 15.4638 66.2271 15.7591 65.1132 15.7591C62.8852 15.7591 61.7354 14.4305 61.7354 11.8101L61.7713 1.84521H64.107V5.42518H67.413V7.45506H64.107V11.6993C64.107 12.9173 64.5742 13.5078 65.5444 13.5078C66.0834 13.5447 66.6583 13.3602 67.1974 13.028Z" fill="#2FAD6F"/>
  </g>
  <defs>
    <clipPath id="clip0_2781_6022">
      <rect width="140" height="21" fill="white"/>
    </clipPath>
  </defs>
</svg>