<svg xmlns="http://www.w3.org/2000/svg" width="129" height="21" viewBox="0 0 129 21" fill="none">
  <g clip-path="url(#clip0_2781_6076)">
    <path fill-rule="evenodd" clip-rule="evenodd" d="M31.1918 5.86752V7.62322V9.03689H36.1055C36.3531 9.99969 36.3531 11.0079 36.1055 11.9707H31.215V18.1498C30.0117 18.3221 28.7893 18.3221 27.5859 18.1498V2.94896L27.7484 2.81974H37.5215C37.6236 3.27892 37.6704 3.7483 37.6608 4.21822C37.6834 4.44753 37.6527 4.67891 37.5709 4.89485C37.4892 5.11079 37.3585 5.30565 37.1888 5.4647C36.7605 5.76712 36.2365 5.90991 35.7108 5.86752H31.1918ZM46.8922 7.93484C47.4696 8.55639 47.9132 9.28609 48.1964 10.0802C48.4796 10.8742 48.5966 11.7163 48.5404 12.5559C48.5522 13.3849 48.4321 14.2106 48.1845 15.0032C47.9701 15.6823 47.6202 16.3128 47.1553 16.8577C46.7062 17.3756 46.1388 17.7819 45.4994 18.0434C44.7837 18.3347 44.0144 18.477 43.2399 18.4614C42.4672 18.4769 41.6998 18.3319 40.9881 18.0358C40.3567 17.7679 39.7937 17.3655 39.3399 16.8577C38.8716 16.3088 38.5262 15.6692 38.3263 14.9804C37.8723 13.3922 37.8723 11.712 38.3263 10.1238C38.5299 9.43802 38.872 8.79955 39.3322 8.24646C39.7744 7.72223 40.3365 7.30812 40.9726 7.03797C41.6891 6.73978 42.462 6.59469 43.2399 6.61235C43.9076 6.58338 44.5745 6.68542 45.2016 6.91249C45.8287 7.13956 46.4034 7.48711 46.8922 7.93484ZM43.2476 9.25731C42.9709 9.25394 42.7001 9.33638 42.4738 9.49292C42.2582 9.66287 42.0882 9.88205 41.9786 10.1314C41.8481 10.4293 41.7621 10.7441 41.7232 11.0662C41.6752 11.4418 41.652 11.8201 41.6536 12.1987C41.6536 12.8295 41.6536 13.3692 41.7155 13.8252C41.7349 14.2162 41.8105 14.6026 41.9399 14.9728C42.0311 15.2426 42.2005 15.4804 42.4274 15.6569C42.6559 15.8071 42.9263 15.8841 43.2012 15.8773C43.4901 15.9024 43.7792 15.8314 44.022 15.6756C44.2648 15.5199 44.4472 15.2884 44.5399 15.0184C44.785 14.2208 44.8922 13.3884 44.8571 12.5559C44.8941 11.7258 44.7869 10.8956 44.5399 10.1009C44.451 9.83899 44.2756 9.61371 44.0414 9.46086C43.8073 9.30802 43.5279 9.23637 43.2476 9.25731ZM49.91 8.58847C50.009 8.23682 50.1547 7.8995 50.3434 7.5852C50.51 7.29653 50.7274 7.03919 50.9856 6.82516C51.624 6.84509 52.2421 7.04976 52.7625 7.41349C53.2829 7.77722 53.6823 8.28381 53.9106 8.86968C54.103 8.27656 54.4843 7.75988 54.9984 7.39587C55.5126 7.03185 56.1322 6.83977 56.7659 6.84796C57.2737 6.86103 57.779 6.92213 58.2748 7.03039C58.2628 7.58764 58.1822 8.14141 58.0349 8.67967C57.8991 9.24974 57.6802 9.79757 57.3849 10.3062C57.004 10.1941 56.6125 10.1202 56.2165 10.0858C55.8291 10.0939 55.451 10.204 55.1216 10.4046C54.7923 10.6051 54.5237 10.8887 54.3439 11.2258V18.2106C53.7579 18.3019 53.1652 18.3451 52.5719 18.3398C51.9709 18.3444 51.3706 18.3012 50.7767 18.2106V10.9598C50.828 10.5314 50.7763 10.0972 50.6258 9.69193C50.4753 9.2867 50.2301 8.92179 49.91 8.62648V8.58847ZM67.2044 6.94677C67.2966 7.35609 67.3433 7.77404 67.3437 8.19325C67.3442 8.60498 67.2975 9.01544 67.2044 9.41691L64.4884 9.37131V14.532C64.4884 15.2389 64.8211 15.5885 65.4943 15.5885H66.7711C66.9626 16.0736 67.0647 16.5883 67.0729 17.1085C67.0861 17.4354 67.0549 17.7626 66.98 18.0814C65.9541 18.2196 64.9203 18.2932 63.8848 18.3018C61.9658 18.3018 61.0063 17.2606 61.0063 15.1781V9.41691H59.2266C59.1149 9.02099 59.0602 8.61166 59.0641 8.20084C59.0627 7.77767 59.1174 7.35612 59.2266 6.94677L61.0063 6.99237V5.6927C60.9474 5.11479 61.1072 4.53582 61.4551 4.06622C61.6549 3.88609 61.8913 3.74959 62.1487 3.66574C62.4062 3.5819 62.6787 3.55261 62.9485 3.57978H64.3414L64.5039 3.73939V6.97718L67.2199 6.93158L67.2044 6.94677ZM77.8364 13.7036H71.8937C71.8919 14.2524 72.0741 14.7866 72.4121 15.2237C72.6135 15.421 72.8563 15.5729 73.1236 15.6687C73.3909 15.7646 73.6762 15.802 73.9597 15.7785C74.3867 15.7735 74.8119 15.7251 75.2287 15.6341C75.7887 15.5023 76.3392 15.3347 76.8769 15.1325C77.4088 15.7037 77.7374 16.4292 77.8132 17.1998C76.4946 18.0796 74.9262 18.5266 73.3329 18.4766C72.5046 18.5008 71.6808 18.3477 70.9187 18.0282C70.3066 17.7367 69.7756 17.3037 69.3711 16.7665C68.9515 16.1979 68.6612 15.5473 68.5199 14.8588C68.3431 14.0702 68.2575 13.2645 68.2645 12.4571C68.2597 11.6741 68.3639 10.8942 68.5741 10.139C68.7608 9.46703 69.0788 8.83718 69.5104 8.28445C69.9362 7.75397 70.4855 7.33171 71.1121 7.05319C71.8268 6.73856 72.6042 6.58533 73.3871 6.60476C74.0625 6.59267 74.7336 6.71416 75.3603 6.96199C75.9257 7.18426 76.4372 7.5209 76.8615 7.95003C77.2827 8.38498 77.6045 8.90322 77.8055 9.47012C78.0342 10.0807 78.147 10.7273 78.1382 11.3778C78.1513 12.1478 78.0523 12.9156 77.8442 13.658L77.8364 13.7036ZM71.8704 11.279H74.865V11.0358C74.8858 10.5499 74.7534 10.0695 74.4859 9.66013C74.3618 9.48362 74.1931 9.3418 73.9964 9.24854C73.7997 9.15528 73.5818 9.11377 73.3639 9.12809C73.1558 9.114 72.9476 9.15275 72.7592 9.24061C72.5708 9.32846 72.4087 9.46247 72.2883 9.62972C72.0093 10.136 71.8656 10.7034 71.8704 11.279ZM80.8156 2.77414L83.9804 2.70574H86.0929C87.4746 2.6317 88.8449 2.98813 90.0083 3.72419C90.4832 4.07605 90.8624 4.53763 91.1121 5.06798C91.3618 5.59832 91.4744 6.18103 91.4398 6.76437C91.4398 7.42218 91.2405 8.0651 90.8672 8.61127C90.5157 9.1529 90.0098 9.58108 89.4124 9.84253C89.8034 9.97175 90.1696 10.1644 90.4958 10.4126C90.8336 10.6731 91.1286 10.9834 91.3702 11.3322C91.6139 11.6882 91.809 12.074 91.9505 12.4799C92.0957 12.8878 92.169 13.3171 92.1672 13.7492C92.2193 14.3955 92.1105 15.0445 91.8503 15.6403C91.5902 16.2362 91.1864 16.7609 90.6737 17.1694C89.421 17.983 87.9321 18.3726 86.4333 18.279H84.1971L80.8156 18.2106L80.6531 18.0586V2.92616L80.8156 2.77414ZM84.2822 5.22148V8.83169H85.8994C86.1809 8.86341 86.466 8.83277 86.7338 8.74201C87.0016 8.65126 87.2453 8.50269 87.447 8.30725C87.7448 7.94124 87.901 7.48351 87.8881 7.01517C87.9039 6.55073 87.7409 6.09752 87.4315 5.74591C87.2263 5.55674 86.9814 5.41384 86.7141 5.3272C86.4468 5.24056 86.1635 5.21227 85.8839 5.24428H84.9941C84.731 5.24428 84.4988 5.24428 84.2976 5.24428L84.2822 5.22148ZM86.1702 11.393H84.2976V15.7709C84.6923 15.7709 85.1411 15.7709 85.6286 15.7709C86.0907 15.7888 86.5534 15.7505 87.0059 15.6569C87.428 15.5665 87.8053 15.3356 88.0738 15.0032C88.3846 14.5888 88.5379 14.0806 88.5071 13.5668C88.5165 13.0103 88.3184 12.4696 87.95 12.0467C87.7237 11.8165 87.4477 11.6389 87.1424 11.5271C86.8371 11.4153 86.5102 11.3721 86.1857 11.4006L86.1702 11.393ZM104.03 16.5309C103.934 16.886 103.788 17.2262 103.596 17.5418C103.426 17.8349 103.2 18.093 102.931 18.3018C102.453 18.3102 101.98 18.2071 101.551 18.0009C101.122 17.7948 100.749 17.4916 100.462 17.1162C99.6089 17.9597 98.4538 18.4424 97.2433 18.4614C96.7133 18.4728 96.1865 18.3771 95.6957 18.1802C95.2749 18.0011 94.8937 17.7429 94.5737 17.4202C94.271 17.1093 94.0389 16.7388 93.8927 16.3333C93.7376 15.9196 93.659 15.4821 93.6606 15.0412C93.645 14.4569 93.7668 13.8769 94.0166 13.3463C94.2381 12.8746 94.5694 12.4607 94.9838 12.1379C95.4068 11.7923 95.8963 11.5338 96.4231 11.3778C96.9949 11.2074 97.5898 11.1228 98.1873 11.127H99.1082H99.8046V10.7774C99.8309 10.581 99.8103 10.3812 99.7445 10.1939C99.6787 10.0066 99.5694 9.83695 99.4252 9.69833C99.2811 9.55971 99.1061 9.45594 98.9141 9.39522C98.7221 9.33451 98.5183 9.31851 98.3189 9.34851C97.1708 9.45901 96.0421 9.71447 94.9606 10.1086C94.432 9.39474 94.1304 8.54316 94.0939 7.66121C94.4576 7.53201 94.8677 7.4028 95.3165 7.28119C95.7653 7.15958 96.2296 7.06078 96.7016 6.96957C97.1737 6.87837 97.6379 6.80996 98.0945 6.75676C98.5027 6.70773 98.9136 6.68234 99.3248 6.68075C99.8491 6.67671 100.371 6.75103 100.872 6.90117C101.348 7.04249 101.789 7.27498 102.172 7.5852C102.56 7.90943 102.864 8.31806 103.062 8.77848C103.298 9.32871 103.412 9.92215 103.395 10.519V15.0792C103.367 15.3561 103.411 15.6354 103.523 15.8908C103.636 16.1462 103.813 16.3691 104.037 16.5385L104.03 16.5309ZM97.1272 14.8436C97.1272 15.5505 97.5374 15.9001 98.3576 15.9001C98.8986 15.8532 99.4067 15.6252 99.7968 15.2541V13.4527H99.023H98.5588C98.3615 13.4271 98.1609 13.4467 97.9728 13.5102C97.7846 13.5737 97.614 13.6792 97.4745 13.8185C97.3349 13.9578 97.2302 14.127 97.1686 14.3128C97.107 14.4986 97.0902 14.696 97.1195 14.8892L97.1272 14.8436ZM115.884 10.7394V15.3377C115.83 16.1178 116.021 16.8955 116.434 17.5646C115.864 18.0699 115.119 18.3419 114.352 18.3246C114.058 18.3611 113.76 18.3315 113.48 18.238C113.2 18.1445 112.945 17.9896 112.735 17.785C112.408 17.3036 112.255 16.728 112.301 16.1509V11.3702C112.326 10.9841 112.255 10.598 112.093 10.2454C112.008 10.1229 111.892 10.0251 111.756 9.96219C111.619 9.89932 111.468 9.87373 111.319 9.88813C111.052 9.89891 110.79 9.95819 110.545 10.063C110.22 10.2121 109.919 10.4095 109.655 10.6482V18.1498C109.4 18.1878 109.113 18.2258 108.812 18.2486C108.51 18.2714 108.193 18.2486 107.875 18.2486C107.558 18.2486 107.241 18.2486 106.939 18.2486C106.637 18.2486 106.351 18.1878 106.096 18.1498V6.97718L106.25 6.81758H107.597C108.019 6.79794 108.436 6.92056 108.778 7.16519C109.12 7.40982 109.367 7.76179 109.477 8.16284C110.321 7.32741 111.453 6.83146 112.65 6.77198C113.116 6.74457 113.582 6.83003 114.007 7.02085C114.432 7.21168 114.803 7.50203 115.087 7.86644C115.677 8.72023 115.967 9.73936 115.915 10.7698L115.884 10.7394ZM127.313 13.6808L127.886 15.3225C128.035 16.0574 128.42 16.726 128.985 17.2302C128.689 17.5739 128.32 17.85 127.905 18.039C127.489 18.2281 127.036 18.3256 126.578 18.3246C126.167 18.3546 125.761 18.2295 125.441 17.975C125.111 17.6294 124.875 17.2089 124.752 16.7513L124.071 14.8284C123.983 14.4764 123.802 14.1537 123.545 13.8936C123.321 13.7315 123.049 13.6485 122.771 13.658C122.438 13.658 122.198 13.658 122.067 13.658V18.127C120.915 18.2993 119.744 18.2993 118.592 18.127V1.78609L118.732 1.65687H120.101C120.378 1.62433 120.66 1.64947 120.926 1.73066C121.193 1.81184 121.439 1.94726 121.649 2.1281C121.987 2.60767 122.14 3.18943 122.082 3.76979V10.7774H122.446C122.581 10.776 122.712 10.7376 122.826 10.6663C122.939 10.5951 123.03 10.494 123.088 10.3746L124.272 8.09444C124.436 7.70658 124.717 7.37684 125.076 7.14884C125.435 6.92085 125.856 6.80534 126.284 6.81758C126.725 6.81758 127.39 6.81757 128.273 6.86318L128.412 7.04558L126.648 10.3898C126.381 10.9201 125.982 11.3752 125.487 11.7123C125.93 11.8752 126.327 12.1384 126.647 12.4804C126.967 12.8224 127.201 13.2336 127.329 13.6808H127.313Z" fill="white"/>
    <path fill-rule="evenodd" clip-rule="evenodd" d="M21.4032 9.37888C21.3487 9.26495 21.2622 9.16867 21.1539 9.10135C21.0456 9.03404 20.92 8.99848 20.7919 8.99886H18.9115C18.7448 8.99914 18.5844 9.06163 18.4627 9.17367C17.9402 9.66285 17.319 10.0388 16.6391 10.277C15.9593 10.5153 15.2361 10.6107 14.5164 10.5569C13.2906 10.5393 12.1201 10.0532 11.2533 9.20174C10.3865 8.35032 9.89156 7.20063 9.87358 5.99668C9.88784 5.10898 10.2585 4.26275 10.9048 3.64214C11.5511 3.02152 12.4209 2.67677 13.3247 2.6829C13.708 2.68974 14.0855 2.77507 14.4333 2.93342C14.7811 3.09178 15.0914 3.31967 15.3443 3.60254C15.4667 3.74232 15.5683 3.89843 15.6461 4.06618C15.6927 4.20177 15.6927 4.34861 15.6461 4.4842C15.5849 4.6416 15.4661 4.77091 15.313 4.84682C15.1599 4.92273 14.9834 4.93978 14.8182 4.89463C14.6061 4.81336 14.3803 4.7721 14.1527 4.77302C13.7523 4.7739 13.3619 4.89532 13.034 5.12091C12.7061 5.34651 12.4564 5.66544 12.3188 6.03469C12.1826 6.39904 12.1637 6.79571 12.2647 7.17095C12.3658 7.54619 12.5819 7.88183 12.8837 8.13239C12.9089 8.16582 12.9404 8.19421 12.9765 8.21601H13.0229C13.0451 8.24033 13.0713 8.26086 13.1003 8.2768C13.5807 8.54261 14.1193 8.69042 14.6704 8.70762C15.2214 8.72483 15.7686 8.61092 16.2652 8.37561C16.8503 8.07683 17.3543 7.64505 17.7352 7.11624C18.1162 6.58742 18.3629 5.97688 18.455 5.33544C18.5493 4.71962 18.5053 4.09102 18.3262 3.49364C18.1471 2.89627 17.8372 2.34459 17.4181 1.87725C16.9135 1.30437 16.2915 0.842426 15.5929 0.521569C14.8942 0.200713 14.1345 0.0281437 13.3634 0.0151367H13.2938C11.6843 0.0209295 10.1413 0.646839 8.99676 1.75829C7.85217 2.86974 7.19733 4.37797 7.17301 5.95868C7.16541 6.59477 7.24611 7.22892 7.41289 7.8436H7.05694C5.72374 7.7523 4.38845 7.9895 3.17228 8.53369C1.9561 9.07787 0.897555 9.9118 0.0927483 10.9598C0.0128467 11.0578 -0.0373401 11.1759 -0.0520911 11.3006C-0.0668421 11.4254 -0.0455564 11.5516 0.00934196 11.665C0.0642403 11.7784 0.150528 11.8744 0.258333 11.9418C0.366137 12.0093 0.491105 12.0456 0.618938 12.0466H2.46832C2.63537 12.0479 2.79636 11.9852 2.91712 11.8718C3.44061 11.3822 4.06337 11.0066 4.74473 10.7696C5.42609 10.5325 6.15071 10.4393 6.87123 10.4961C8.09575 10.5176 9.26401 11.005 10.13 11.8556C10.996 12.7062 11.4922 13.8537 11.514 15.0564C11.4978 15.9415 11.129 16.7851 10.4866 17.4061C9.84426 18.0271 8.97964 18.3759 8.07836 18.3778C7.69461 18.3695 7.31682 18.2828 6.96909 18.1232C6.62136 17.9635 6.31132 17.7344 6.05874 17.4505C5.93632 17.3136 5.83468 17.16 5.75696 16.9945C5.71033 16.8563 5.71033 16.7071 5.75696 16.5689C5.82095 16.4136 5.94016 16.2864 6.09244 16.2109C6.24472 16.1354 6.41972 16.1168 6.58493 16.1585C6.80096 16.2343 7.02872 16.2729 7.25813 16.2725C7.65551 16.2727 8.0434 16.1532 8.36946 15.9301C8.69553 15.707 8.94408 15.391 9.08157 15.0248C9.21906 14.6586 9.23889 14.2598 9.13836 13.8822C9.03784 13.5046 8.82182 13.1663 8.51943 12.9131C8.49491 12.8839 8.46624 12.8583 8.43431 12.8371H8.38787C8.36567 12.8127 8.33953 12.7922 8.3105 12.7763C7.8309 12.5117 7.29318 12.3652 6.74336 12.3493C6.19354 12.3334 5.648 12.4486 5.1534 12.6851C4.56639 12.9824 4.06051 13.4137 3.67814 13.9426C3.29578 14.4716 3.04808 15.0829 2.95581 15.7252C2.86313 16.341 2.90786 16.9693 3.0869 17.5664C3.26594 18.1635 3.57501 18.7153 3.9927 19.1834C4.49605 19.7578 5.11772 20.2208 5.81666 20.5418C6.5156 20.8627 7.27593 21.0345 8.04741 21.0455H8.12478C9.73355 21.0397 11.2756 20.4136 12.419 19.3019C13.5623 18.1903 14.2155 16.682 14.2378 15.102C14.2444 14.466 14.1637 13.832 13.9979 13.2171L14.3539 13.2551H14.9033C16.1441 13.2519 17.3674 12.9669 18.4775 12.4223C19.5876 11.8778 20.5545 11.0885 21.3026 10.1161C21.3946 10.0184 21.4537 9.89511 21.4717 9.76314C21.4897 9.63118 21.4658 9.49697 21.4032 9.37888Z" fill="#00B3C4"/>
  </g>
  <defs>
    <clipPath id="clip0_2781_6076">
      <rect width="129" height="21" fill="white"/>
    </clipPath>
  </defs>
</svg>