<svg xmlns="http://www.w3.org/2000/svg" width="125" height="42" viewBox="0 0 125 42" fill="none">
  <path d="M13.9477 8.55732H9.08304V13.1755L1.29272 20.5104L9.08304 27.8792V32.4635H13.9477L15.7507 34.1614L21.7721 39.7983L27.7594 34.1614L29.5964 32.4635H34.4271V27.8792L36.2641 26.1813L42.2515 20.5444L36.2301 14.8734L34.3931 13.1755V8.55732H29.5624L27.7254 6.85944L21.7381 1.22247L13.9477 8.55732ZM7.28004 6.85944H14.492L21.7721 0L29.0521 6.85944H36.2301V13.651L43.5102 20.5444L36.2301 27.3698V34.1614H29.0181L21.7381 41.0208L14.458 34.1614H7.28004V27.3698L0 20.5104L7.28004 13.617V6.85944ZM3.81011 20.5104L21.7381 3.63346L39.632 20.5104L21.7381 37.3873L3.81011 20.5104Z" fill="#006D58"/>
  <path d="M34.3929 15.5865C32.3857 17.8956 29.6983 19.5935 26.7726 20.4764C25.1737 20.9518 23.881 21.1216 22.2141 21.1895C20.8874 21.1556 19.5266 21.3593 18.37 22.0045C16.2608 23.0912 14.764 25.1626 14.6279 27.5736C14.4238 32.4634 18.7442 33.8218 21.7378 37.4213L26.9767 32.4635L34.3588 25.4682L39.5977 20.5443L34.3929 15.5865ZM9.0828 25.4342C11.0219 23.2609 13.5393 21.597 16.3288 20.7141C19.3905 19.4917 21.976 20.2727 24.5274 19.2879C26.6366 18.5069 28.2695 16.6392 28.7797 14.4659C29.7323 9.10062 25.1397 7.23295 21.8059 3.63345L16.4989 8.5573L9.0828 15.5526L3.80988 20.5104L9.0828 25.4342ZM1.29248 20.5104L9.0828 13.1416V8.52334H13.9475L21.7719 1.15454L29.5962 8.52334H34.4269V13.1416L42.2512 20.5104L34.4269 27.8792V32.4635H29.5962L21.7719 39.8323L13.9475 32.4635H9.0828V27.8792L1.29248 20.5104Z" fill="#F1A400"/>
  <path d="M74.6033 30.0524L71.7117 24.5852L68.7861 30.0524H74.6033ZM47.7964 28.6941V32.0899H56.4032L56.6073 32.022H56.6754C56.8795 31.954 57.0496 31.8522 57.2197 31.7843L57.3217 31.7163L57.4578 31.5805L57.5599 31.4447L57.6959 31.3088L57.764 31.173C57.9 31.0372 57.9341 30.7995 58.0021 30.6297C58.0361 30.0864 58.0021 29.6789 57.5939 29.2714L57.4918 29.1356L57.3557 29.0337L57.1856 28.8979L57.0156 28.8299L56.8455 28.7281L56.7774 28.6941L56.6754 28.6602C53.7838 28.3885 50.7901 28.4904 47.7964 28.6941ZM47.7964 23.2269V26.6227H56.4032L56.5053 26.5887H56.6073L56.6754 26.5548C56.8795 26.4869 57.0836 26.419 57.2197 26.2831C57.4578 26.2152 57.6279 25.9435 57.7299 25.7398C57.866 25.604 57.9 25.3663 57.9681 25.1625C58.0021 24.5852 57.9341 24.2796 57.5599 23.8382L57.4578 23.7023L57.3217 23.5665L57.1516 23.4986L56.8455 23.2949L56.7774 23.2609H56.6754L56.6073 23.2269L56.5053 23.193H56.4032L56.3012 23.2269H47.7964ZM81.8153 21.1895H85.4213L95.559 30.7655V21.1895H99.165V34.1613H95.559L85.4213 24.5852V34.1613H81.8153V21.1895ZM106.887 27.6754L116.208 21.1895H112.228L104.268 26.6567V21.1895H100.628V34.1613H104.268V28.6941L112.194 34.1613H116.174L106.887 27.6754ZM108.622 6.85938H112.228V12.3265L120.189 6.85938H124.169L114.848 13.3453L124.169 19.8312H120.189L112.228 14.364V19.8312H108.622V6.85938ZM100.628 14.364V19.8312H97.0218V14.364L90.1159 6.85938H93.756L98.8248 12.3265L103.894 6.85938H107.534L100.628 14.364ZM81.8153 6.85938H85.4213V17.7937H95.559V19.8312H81.8153V6.85938ZM71.7117 10.2551L74.6033 15.7223H68.8201L71.7117 10.2551ZM76.7805 19.8312H80.3865L73.5147 6.85938H69.8747L63.0029 19.8312H66.6089L67.6975 17.7937H75.6579L76.7805 19.8312ZM44.1904 6.85938H47.7964V12.3265H57.9V6.85938H61.5401V19.8312H57.9V14.364H47.7964V19.8312H44.1904V6.85938ZM44.1904 21.1895H58.3083L58.4784 21.2234H58.6825L58.8526 21.2574L59.0227 21.3253L59.1928 21.3593L59.3969 21.4272C59.8051 21.563 60.1793 21.8007 60.5195 22.0724C61.1999 22.6836 61.6081 23.3967 61.6421 24.3136C61.7102 26.2492 60.0773 27.7093 58.2062 27.7093C59.9752 27.6414 61.6761 29.1356 61.6421 30.9353C61.6421 31.8182 61.2679 32.6332 60.6216 33.2444C60.2814 33.5501 59.9412 33.7878 59.4989 33.9236L59.3629 33.9915L59.1587 34.0255L58.9886 34.0934L58.8186 34.1273L58.6485 34.1613L58.4443 34.1952H44.1904V21.1895ZM66.6089 34.1613H63.0029L69.8747 21.1895H73.5147L80.3865 34.1613H76.7805L75.6579 32.1238H67.6975L66.6089 34.1613Z" fill="#006D58"/>
</svg>