<svg xmlns="http://www.w3.org/2000/svg" width="103" height="43" viewBox="0 0 103 43" fill="none">
  <g clip-path="url(#clip0_2781_6017)">
    <path d="M54.1729 13.8579H50.7963L45.8292 18.9442V8.99882H43.1499V26.6557H45.8292V22.0743L47.4686 20.484L51.249 26.6557H54.6011L49.4016 18.5404L54.1729 13.8579ZM56.8278 17.7957H59.4337C59.6539 16.1297 60.4246 15.5113 62.1986 15.5113C63.9359 15.5113 64.7556 16.1297 64.7556 17.4423C64.7556 17.9093 64.7066 18.2122 64.5843 18.3637C64.3151 18.7297 63.7646 18.8559 61.856 19.1083C59.3725 19.4364 56.2895 19.752 56.2895 23.147C56.2895 25.5072 57.9044 26.9712 60.4858 26.9712C62.1252 26.9712 63.7156 26.5547 64.8412 25.4315C65.0369 26.5421 65.8077 26.9712 66.8598 26.9712C67.3859 26.9712 67.7774 26.9207 68.646 26.6936V24.7121C68.3035 24.7625 68.2178 24.7625 68.0221 24.7625C67.5205 24.7625 67.3737 24.5606 67.3737 23.816V17.3161C67.3737 14.5647 65.2082 13.4414 62.272 13.4414C59.2379 13.4667 57.1459 14.6531 56.8278 17.7957ZM64.7311 20.2316V21.7461C64.7311 22.516 64.7556 23.3616 64.1805 23.9548C63.5566 24.5985 62.4922 24.9771 61.3667 24.9771C59.9475 24.9771 59.1278 24.2829 59.1278 23.0713C59.1278 21.3801 60.5714 21.1403 61.856 20.9384C62.8225 20.7743 63.838 20.749 64.7311 20.2316ZM81.0638 17.5812C81.0638 14.6783 78.7026 13.4919 75.8642 13.4919C72.6833 13.4919 70.7748 14.9307 70.7748 17.3666C70.7748 20.118 73.0137 20.4966 75.8642 21.216C77.4302 21.6073 78.8249 21.8345 78.8249 23.1218C78.8249 24.2577 77.7605 24.9771 76.1456 24.9771C74.4328 24.9771 73.2828 24.2577 73.136 22.5665H70.5056C70.6525 25.4946 72.5732 27.0343 76.0967 27.0343C79.4244 27.0343 81.5164 25.3936 81.5164 22.8189C81.5164 19.9918 78.8616 19.4238 76.6962 18.9064C74.702 18.4394 73.5153 18.3384 73.5153 17.0511C73.5153 16.1045 74.335 15.5618 75.7297 15.5618C77.1978 15.5618 78.2377 16.0288 78.4334 17.5938L81.0638 17.5812ZM87.2176 13.8579H84.6362V31.3886H87.3644V24.9645C88.3554 26.378 89.7256 26.9712 91.4139 26.9712C94.7661 26.9712 96.9316 24.346 96.9316 20.2947C96.9316 16.155 94.7172 13.4793 91.2671 13.4793C89.6522 13.4793 88.0862 14.123 87.2176 15.5618V13.8579ZM90.7044 15.7637C92.8209 15.7637 94.1544 17.5307 94.1544 20.3073C94.1544 23.0335 92.8576 24.7247 90.7533 24.7247C88.5634 24.7247 87.2543 23.0335 87.2543 20.2568C87.2665 17.4549 88.5389 15.7637 90.7044 15.7637ZM103 8.9231H100.259V11.6997H103V8.9231ZM103 13.8579H100.259V26.6557H103V13.8579Z" fill="white"/>
    <path d="M7.82991 34.0008C9.72622 25.8855 7.47512 25.6078 7.47512 21.67C7.47512 20.3575 8.47832 17.2148 8.62513 15.6877C8.96769 12.179 8.12353 13.113 10.6071 10.513L10.7539 6.90339C12.0018 5.66652 12.6257 4.55587 14.155 4.94712C15.0848 7.79948 13.3231 6.90339 13.1518 10.2353C14.1917 11.6615 14.8891 11.8004 15.6721 13.5926C16.663 15.8643 15.9534 15.8391 17.8253 17.7449C20.578 18.073 22.2418 18.0857 24.2115 16.041C24.4195 13.8576 23.1961 14.0469 24.444 12.0402C25.3004 10.6645 26.1446 9.91982 27.7472 10.4752C28.2733 12.6207 25.9121 13.0625 26.6462 15.4479C29.8148 15.776 30.5489 11.2703 32.9713 11.0431C32.9713 15.8517 28.102 16.4828 27.9919 20.3953C27.9185 22.8438 30.0228 29.5835 32.1516 31.0223C34.0234 28.0563 36.0421 24.8253 36.2745 21.2409C37.9017 -3.21872 6.53308 -7.67395 0.575009 13.744C0.269153 14.842 0.0856396 15.9527 0 17.0634V19.9031C0.526072 26.9457 4.73465 33.13 7.82991 34.0008Z" fill="#EF4635"/>
    <path d="M17.0054 37.2825C25.4837 38.3175 24.5906 35.6166 22.9145 25.6585C22.2539 21.7334 21.4831 19.6635 16.9687 20.0295C14.1548 23.4751 15.574 30.1895 15.6718 33.1302C15.7452 35.4525 15.366 35.6039 17.0054 37.2825ZM26.7561 34.8845C28.1752 34.7078 28.4199 34.4049 29.5699 33.4584C29.7534 31.4516 28.4199 28.2206 26.3401 27.5769C25.3614 29.5206 25.6427 32.9788 26.7561 34.8845ZM12.7846 36.5505C12.7846 34.102 13.0782 29.041 11.8548 27.2993C10.2276 27.7915 10.7292 29.2303 10.717 32.2972C10.7047 34.5438 10.301 36.3233 12.7846 36.5505Z" fill="#EF4635"/>
  </g>
  <defs>
    <clipPath id="clip0_2781_6017">
      <rect width="103" height="43" fill="white"/>
    </clipPath>
  </defs>
</svg>