<svg width="31" height="31" viewBox="0 0 31 31" fill="none" xmlns="http://www.w3.org/2000/svg">
<g clip-path="url(#clip0_13_1872)">
<path d="M30.9999 15.5C30.9999 24.0585 24.0598 30.9975 15.4962 30.9988C6.93889 30.9988 -0.00123953 24.0585 6.64658e-07 15.4988C-0.00247973 6.93904 6.93765 0 15.4987 0C24.0598 0 30.9999 6.94028 30.9999 15.5Z" fill="#4AA485"/>
<path d="M21.5982 11.7031C21.3985 9.62735 19.6064 8.93171 17.3418 8.73331V5.85278H15.5895V8.65643C15.1293 8.65643 14.6581 8.66511 14.1905 8.67503V5.85278H12.4381L12.4369 8.73083C12.0574 8.73827 11.6841 8.74571 11.3207 8.74571V8.73703L8.90358 8.73579V10.6082C8.90358 10.6082 10.1983 10.5834 10.176 10.607C10.8866 10.607 11.1173 11.0186 11.1843 11.3745V14.6556C11.2339 14.6556 11.2972 14.658 11.3691 14.668H11.1843L11.1831 19.2646C11.1521 19.4879 11.0206 19.8437 10.5245 19.845C10.5468 19.8648 9.25084 19.845 9.25084 19.845L8.90234 21.9381H11.1843C11.6084 21.9381 12.0264 21.9455 12.4356 21.948L12.4369 24.8608H14.188V21.979C14.668 21.9889 15.1331 21.9927 15.5882 21.9927L15.587 24.8608H17.3394V21.9542C20.2861 21.7856 22.351 21.0428 22.6065 18.2751C22.8136 16.0468 21.7656 15.0511 20.0926 14.6494C21.1108 14.1335 21.747 13.2221 21.5982 11.7031ZM19.1451 17.9304C19.1451 20.1066 15.4183 19.8599 14.229 19.8599V15.9997C15.4183 16.0022 19.1451 15.6612 19.1451 17.9304ZM18.329 12.4856C18.329 14.4658 15.2186 14.234 14.229 14.2352V10.7359C15.2199 10.7359 18.3303 10.421 18.329 12.4856Z" fill="#212121"/>
<path d="M11.1865 14.5787H11.447V14.7709H11.1865V14.5787Z" fill="#1D1C2B"/>
</g>
<defs>
<clipPath id="clip0_13_1872">
<rect width="31" height="31" fill="white"/>
</clipPath>
</defs>
</svg>
