<svg width="118" height="28" viewBox="0 0 118 28" fill="none" xmlns="http://www.w3.org/2000/svg">
<path d="M60.3536 15.3536C60.5488 15.1583 60.5488 14.8417 60.3536 14.6464L57.1716 11.4645C56.9763 11.2692 56.6597 11.2692 56.4645 11.4645C56.2692 11.6597 56.2692 11.9763 56.4645 12.1716L59.2929 15L56.4645 17.8284C56.2692 18.0237 56.2692 18.3403 56.4645 18.5355C56.6597 18.7308 56.9763 18.7308 57.1716 18.5355L60.3536 15.3536ZM37 15.5H60V14.5H37V15.5Z" fill="#3EA075"/>
<rect x="68.5" y="1.5" width="49" height="25" rx="3.5" stroke="#3EA075"/>
<circle cx="93" cy="14" r="9" fill="#3EA075"/>
<g clip-path="url(#clip0_1061_6654)">
<path d="M27.975 13.995C27.975 21.6888 21.7383 27.9254 14.0446 27.9254C6.35115 27.9254 0.114258 21.6888 0.114258 13.995C0.114258 6.30145 6.35115 0.0646973 14.0446 0.0646973C21.7383 0.0646973 27.975 6.30145 27.975 13.995Z" fill="#1BA27A"/>
<path d="M20.5825 7.08911H7.39185V10.2736H12.3949V14.9542H15.5794V10.2736H20.5825V7.08911Z" fill="white"/>
<path d="M14.0174 15.4529C9.87872 15.4529 6.52332 14.7979 6.52332 13.9898C6.52332 13.1819 9.87858 12.5267 14.0174 12.5267C18.1561 12.5267 21.5114 13.1819 21.5114 13.9898C21.5114 14.7979 18.1561 15.4529 14.0174 15.4529ZM22.4321 14.2338C22.4321 13.1918 18.6647 12.3472 14.0174 12.3472C9.37026 12.3472 5.60266 13.1918 5.60266 14.2338C5.60266 15.1513 8.52399 15.9158 12.3951 16.0852V22.8044H15.5793V16.0879C19.4802 15.9238 22.4321 15.1561 22.4321 14.2338Z" fill="white"/>
    </g>
    <defs>
        <clipPath id="clip0_1061_6654">
            <rect width="28" height="28" fill="white"/>
        </clipPath>
    </defs>
</svg>