<svg width="16" height="13" viewBox="0 0 16 13" fill="none" xmlns="http://www.w3.org/2000/svg">
                    <path d="M7.99968 3.99935L5.33301 6.66601L7.33301 6.66601L7.33301 12.666L8.66634 12.666L8.66634 6.66601L10.6663 6.66602L7.99968 3.99935ZM1.99967 12.666L5.99967 12.666L5.99967 11.3393L1.99967 11.3393L1.99968 1.98601L13.9997 1.98601L13.9997 11.3393L9.99967 11.3393L9.99967 12.666L13.9997 12.666C14.733 12.666 15.333 12.066 15.333 11.3327L15.333 1.99935C15.333 1.26602 14.733 0.666015 13.9997 0.666015L1.99968 0.666014C1.26634 0.666014 0.666342 1.26601 0.666342 1.99935L0.666341 11.3327C0.666341 12.066 1.26634 12.666 1.99967 12.666Z" fill="#3EA075"/>
                </svg>