<svg width="16" height="12" viewBox="0 0 16 12" fill="none" xmlns="http://www.w3.org/2000/svg">
                <path d="M12.666 3.22013L9.99935 5.8868H11.9993C11.9993 8.09347 10.206 9.8868 7.99935 9.8868C7.32602 9.8868 6.68602 9.72013 6.13268 9.42013L5.15935 10.3935C5.97935 10.9135 6.95268 11.2201 7.99935 11.2201C10.946 11.2201 13.3327 8.83347 13.3327 5.8868H15.3327L12.666 3.22013ZM3.99935 5.8868C3.99935 3.68013 5.79268 1.8868 7.99935 1.8868C8.67268 1.8868 9.31268 2.05347 9.86602 2.35347L10.8393 1.38013C10.0193 0.860133 9.04602 0.553467 7.99935 0.553467C5.05268 0.553467 2.66602 2.94013 2.66602 5.8868H0.666016L3.33268 8.55347L5.99935 5.8868H3.99935Z" fill="#3EA075"/>
            </svg>