<svg width="31" height="31" viewBox="0 0 31 31" fill="none" xmlns="http://www.w3.org/2000/svg">
<g clip-path="url(#clip0_13_1873)">
<path d="M30.9727 15.4945C30.9727 24.0126 24.0679 30.9174 15.5498 30.9174C7.03209 30.9174 0.126953 24.0126 0.126953 15.4945C0.126953 6.97664 7.03209 0.0716553 15.5498 0.0716553C24.0679 0.0716553 30.9727 6.97664 30.9727 15.4945Z" fill="#4AA485"/>
<path d="M22.7885 7.84875H8.18457V11.3744H13.7237V16.5565H17.2494V11.3744H22.7885V7.84875Z" fill="#212121"/>
<path d="M15.5195 17.1086C10.9373 17.1086 7.22242 16.3834 7.22242 15.4887C7.22242 14.5942 10.9372 13.8688 15.5195 13.8688C20.1016 13.8688 23.8164 14.5942 23.8164 15.4887C23.8164 16.3834 20.1016 17.1086 15.5195 17.1086ZM24.8357 15.7588C24.8357 14.6051 20.6647 13.67 15.5195 13.67C10.3744 13.67 6.20312 14.6051 6.20312 15.7588C6.20312 16.7747 9.43746 17.6211 13.7233 17.8086V25.2477H17.2487V17.8116C21.5676 17.6299 24.8357 16.7799 24.8357 15.7588Z" fill="#212121"/>
</g>
<defs>
<clipPath id="clip0_13_1873">
<rect width="31" height="31" fill="white"/>
</clipPath>
</defs>
</svg>
