<svg width="103" height="26" viewBox="0 0 103 26" fill="none" xmlns="http://www.w3.org/2000/svg">
<g clip-path="url(#clip0_2781_6375)">
<path fill-rule="evenodd" clip-rule="evenodd" d="M25.8311 13.1023C25.8311 18.0663 17.8834 26.0005 12.9107 26.0005C7.93807 26.0005 -0.00976562 18.0663 -0.00976562 13.1023C-0.00976562 8.13829 7.93807 0.203857 12.9107 0.203857C17.8834 0.203857 25.8311 8.13829 25.8311 13.1023ZM18.0788 13.1023C18.0788 15.0879 14.8996 18.2615 12.9107 18.2615C10.9216 18.2615 7.7425 15.0879 7.7425 13.1023C7.7425 11.1167 10.9217 7.9429 12.9107 7.9429C14.8996 7.9429 18.0788 11.1167 18.0788 13.1023Z" fill="#0065FF"/>
<path d="M39.9018 25.9988C44.7236 25.9988 47.7453 22.9821 48.6622 19.0161H43.3652C42.7202 20.372 41.7015 21.3889 39.9018 21.3889C37.7287 21.3889 36.1329 19.8298 36.1329 17.1518C36.1329 14.4741 37.7287 12.9147 39.9018 12.9147C41.7015 12.9147 42.7202 13.9316 43.3652 15.2876H48.6622C47.7453 11.3216 44.7236 8.3048 39.9018 8.3048C34.7406 8.3048 30.9717 12.2369 30.9717 17.1518C30.9717 22.0669 34.7406 25.9988 39.9018 25.9988ZM50.4703 25.626H55.5976V0.203592H50.4703V25.626ZM61.2086 6.37266C63.0082 6.37266 64.4343 4.94904 64.4343 3.18638C64.4343 1.42387 63.0082 0.000244141 61.2086 0.000244141C59.477 0.000244141 58.0168 1.42387 58.0168 3.18638C58.0168 4.94904 59.477 6.37266 61.2086 6.37266ZM58.662 25.626H63.7893V8.67777H58.662V25.626ZM74.7655 25.9988C79.5868 25.9988 82.6086 22.9821 83.5258 19.0161H78.2288C77.5832 20.372 76.565 21.3889 74.7655 21.3889C72.592 21.3889 70.9965 19.8298 70.9965 17.1518C70.9965 14.4741 72.592 12.9147 74.7655 12.9147C76.565 12.9147 77.5832 13.9316 78.2288 15.2876H83.5258C82.6086 11.3216 79.5868 8.3048 74.7655 8.3048C69.6043 8.3048 65.8353 12.2369 65.8353 17.1518C65.8353 22.0669 69.6043 25.9988 74.7655 25.9988ZM96.7767 25.626H102.99L95.2487 16.3384L101.496 8.67777H95.418L90.4609 14.7452V0.203592H85.3338V25.626H90.4609V18.067L96.7767 25.626Z" fill="white"/>
</g>
<defs>
<clipPath id="clip0_2781_6375">
<rect width="103" height="26" fill="white"/>
</clipPath>
</defs>
</svg>
