<svg width="148" height="39" viewBox="0 0 148 39" fill="none" xmlns="http://www.w3.org/2000/svg">
<g clip-path="url(#clip0_2781_6508)">
<mask id="mask0_2781_6508" style="mask-type:luminance" maskUnits="userSpaceOnUse" x="0" y="0" width="28" height="39">
<path d="M0.534668 0H27.744V39H0.534668V0Z" fill="white"/>
</mask>
<g mask="url(#mask0_2781_6508)">
<path fill-rule="evenodd" clip-rule="evenodd" d="M26.6611 16.4469C26.6611 21.2985 25.5782 24.9143 23.4134 27.2705C21.2481 29.6261 17.903 30.8039 13.3933 30.8039C9.17966 30.8039 5.98311 29.6261 3.80365 27.2705C1.6231 24.9149 0.53418 21.362 0.53418 16.6123V0.676929C0.534611 0.497532 0.60441 0.325608 0.728313 0.198755C0.852216 0.0719021 1.02014 0.000441323 1.19537 0L8.83574 0C9.01087 0.00073337 9.17863 0.0722879 9.30248 0.199078C9.42632 0.325868 9.49621 0.497622 9.49692 0.676929V16.9605C9.49692 18.9 9.84738 20.3925 10.5608 21.4455C11.0948 22.1704 11.8562 22.685 12.7171 22.9029C13.578 23.1207 14.4858 23.0285 15.2882 22.6417C15.82 22.3855 16.2878 22.0084 16.6557 21.5391C17.3533 20.5513 17.7005 19.0955 17.6984 17.1711V14.1219H26.6611V16.4469Z" fill="white"/>
<path fill-rule="evenodd" clip-rule="evenodd" d="M25.9692 12.3407H17.6997V0.709243C17.7001 0.521276 17.7733 0.341133 17.9031 0.20822C18.0329 0.0753067 18.2089 0.000441412 18.3925 0L19.6305 0C19.6319 1.90735 20.3732 3.73603 21.6913 5.08393C23.0097 6.43225 24.7968 7.18971 26.6603 7.18993H26.6625V12.3407H25.9692Z" fill="white"/>
<path fill-rule="evenodd" clip-rule="evenodd" d="M21.3916 0H25.9698C26.1534 0.00058772 26.3293 0.0755 26.4591 0.208382C26.5888 0.341263 26.662 0.521321 26.6626 0.709243V5.40039C25.265 5.40009 23.9247 4.83167 22.9363 3.82006C21.9479 2.80844 21.3923 1.43643 21.3916 0.00557143V0Z" fill="#F4821F"/>
</g>
</g>
<path fill-rule="evenodd" clip-rule="evenodd" d="M48.9648 21.4356C52.8742 21.4356 54.7606 19.2158 54.7606 15.9548V8.09535H51.9636V15.8754C51.9636 16.6913 51.6461 17.4738 51.081 18.0507C50.5158 18.6277 49.7493 18.9518 48.95 18.9518C48.1508 18.9518 47.3843 18.6277 46.8191 18.0507C46.254 17.4738 45.9365 16.6913 45.9365 15.8754V8.09535H43.1626V15.9784C43.1626 19.1987 45.049 21.4399 48.9585 21.4399L48.9648 21.4356ZM71.6435 21.1995V18.7457H65.4438L71.511 10.3302V8.08892H61.8624V10.5449H67.9296L61.8624 18.9368V21.1909L71.6435 21.1995ZM84.7136 21.4356C85.8138 21.4612 86.8992 21.1732 87.8479 20.604C88.7967 20.0348 89.5713 19.2069 90.0847 18.2133L87.7293 17.054C87.4426 17.6224 87.0095 18.1002 86.4767 18.4361C85.9439 18.772 85.3314 18.9532 84.7052 18.9604C83.8985 18.9188 83.1204 18.6419 82.4631 18.1625C81.8059 17.6832 81.2972 17.0215 80.9972 16.2558C80.6973 15.4902 80.6187 14.6529 80.7709 13.8431C80.923 13.0332 81.2995 12.285 81.8556 11.687C82.6022 10.8862 83.6222 10.4075 84.7052 10.3538C85.3303 10.3649 85.9409 10.5475 86.473 10.8826C87.0051 11.2176 87.4391 11.6927 87.7293 12.258L90.0847 11.0773C89.5719 10.0848 88.7968 9.2589 87.8474 8.69348C86.898 8.12805 85.8123 7.84572 84.7136 7.87853C83.6011 7.84546 82.4983 8.09807 81.5062 8.61319C80.5142 9.12831 79.6648 9.88946 79.0358 10.8268C78.4068 11.7642 78.0185 12.8477 77.9064 13.9781C77.7943 15.1085 77.962 16.2496 78.3941 17.2966C78.9154 18.5568 79.798 19.6266 80.9259 20.3653C82.0538 21.104 83.3742 21.4771 84.7136 21.4356ZM108.604 21.1995L103.655 8.09535H100.227L95.258 21.1995H98.3789L99.1864 18.9797H104.696L105.485 21.1995H108.604ZM103.943 16.5237H99.9372L101.941 10.8841L103.943 16.5237ZM127.064 24.4884L122.353 16.2125C123.195 16.0051 123.938 15.5014 124.452 14.7899C124.966 14.0783 125.217 13.2046 125.163 12.3224C125.184 11.7465 125.086 11.1724 124.875 10.638C124.664 10.1036 124.344 9.62089 123.936 9.22175C123.529 8.82262 123.044 8.51607 122.512 8.32229C121.98 8.12852 121.414 8.0519 120.851 8.0975H114.837V21.2038H117.571V16.5452H119.575L123.922 24.4863L127.064 24.4884ZM120.446 14.0914H117.577V10.5556H120.437C120.681 10.5267 120.929 10.5509 121.163 10.6266C121.398 10.7023 121.614 10.8277 121.797 10.9947C121.981 11.1616 122.128 11.3663 122.228 11.5953C122.329 11.8244 122.381 12.0725 122.381 12.3235C122.381 12.5745 122.329 12.8226 122.228 13.0517C122.128 13.2807 121.981 13.4854 121.797 13.6523C121.614 13.8193 121.398 13.9447 121.163 14.0204C120.929 14.0961 120.681 14.1203 120.437 14.0914H120.446ZM137.326 21.2038C141.352 21.2038 144.144 18.6104 144.144 14.6603C144.144 10.7102 141.345 8.0975 137.326 8.0975H132.262V21.2038H137.326ZM137.326 18.7478H134.996V10.5556H137.326C137.865 10.5153 138.405 10.5939 138.911 10.7859C139.417 10.9778 139.877 11.2788 140.259 11.6682C140.64 12.0576 140.936 12.5264 141.124 13.0427C141.313 13.559 141.39 14.1107 141.352 14.6603C141.375 15.206 141.287 15.7506 141.092 16.2594C140.897 16.7681 140.6 17.2296 140.22 17.6143C139.841 17.999 139.386 18.2984 138.886 18.4932C138.387 18.6881 137.852 18.7741 137.318 18.7457L137.326 18.7478ZM147.465 7.84632V7.88068C147.465 8.36293 147.325 8.83436 147.062 9.23536C146.8 9.63637 146.427 9.94896 145.991 10.1336C145.554 10.3183 145.074 10.3667 144.611 10.2727C144.147 10.1788 143.722 9.94676 143.387 9.6059C143.053 9.26505 142.825 8.8307 142.733 8.35777C142.641 7.88483 142.688 7.39455 142.868 6.94888C143.049 6.50322 143.355 6.12218 143.747 5.85395C144.14 5.58571 144.601 5.44232 145.074 5.44189H147.463L147.465 7.84632Z" fill="white"/>
<defs>
<clipPath id="clip0_2781_6508">
<rect width="27.2093" height="39" fill="white" transform="translate(0.534668)"/>
</clipPath>
</defs>
</svg>
