<svg width="72" height="24" viewBox="0 0 72 24" fill="none" xmlns="http://www.w3.org/2000/svg">
<path d="M67.2804 0.405264L72 23.5904H66.5928C66.3768 22.6199 66.2076 21.6049 65.9916 20.6344C65.7756 19.6638 65.9916 20.1491 65.4336 20.1491H58.8708C58.8001 20.1365 58.7277 20.1392 58.6581 20.1571C58.5885 20.175 58.5233 20.2077 58.4667 20.253C58.4101 20.2984 58.3633 20.3554 58.3294 20.4204C58.2954 20.4855 58.2751 20.5571 58.2696 20.6307C57.9672 21.5197 57.6684 22.4013 57.3264 23.2385C56.9808 24.0756 57.024 23.6348 56.8944 23.6348H51.1056V23.1051C53.964 16.13 56.826 9.13997 59.6844 2.13517C59.8534 1.65968 60.1557 1.24646 60.553 0.947771C60.9503 0.649079 61.4248 0.47833 61.9164 0.457124C63.8028 0.368221 65.52 0.412672 67.2804 0.412672M63.2484 6.90629L60.1992 15.3409H65.0052L63.2484 6.90629ZM14.8032 16.1707V15.641C16.5204 10.7402 18.2772 5.83945 19.9512 0.938682C19.9512 0.542323 20.2968 0.364518 20.7252 0.364518H26.4312V0.938682L17.55 23.0162C17.5078 23.1992 17.4005 23.3594 17.2492 23.465C17.0979 23.5706 16.9137 23.614 16.7328 23.5867H11.7576C11.3256 23.5867 11.1564 23.5867 11.0268 23.0125C9.4428 16.656 7.8084 10.2994 6.2208 3.8984C6.18322 3.73443 6.1146 3.5797 6.01885 3.44304C5.9231 3.30638 5.80211 3.19048 5.6628 3.10198C4.00604 2.1534 2.25158 1.39799 0.432 0.849778C0.432 0.849778 0.1296 0.62752 0 0.542322C0.183427 0.497299 0.374573 0.497299 0.558 0.542322H9.1404C9.49887 0.486225 9.8648 0.508689 10.2142 0.608242C10.5637 0.707794 10.8887 0.882191 11.1681 1.12C11.4475 1.35782 11.6749 1.65368 11.8354 1.98822C11.9959 2.32275 12.086 2.68841 12.0996 3.06124L14.5476 15.9929C14.5334 16.0961 14.5334 16.2009 14.5476 16.3041L14.8032 16.1707ZM34.7976 22.7051L35.658 17.5376L36.2592 17.8932C38.4497 19.0609 40.9635 19.4192 43.38 18.9082C43.842 18.8675 44.2802 18.6797 44.6337 18.3711C44.9872 18.0624 45.2386 17.6481 45.3528 17.1857C45.3966 16.7246 45.2953 16.2612 45.0639 15.8638C44.8326 15.4663 44.4833 15.1558 44.0676 14.9779C43.2072 14.4038 42.2676 13.9629 41.4504 13.3888C40.3934 12.7798 39.4139 12.0382 38.5344 11.181C37.644 10.0849 37.1561 8.70166 37.1561 7.27301C37.1561 5.84436 37.644 4.46113 38.5344 3.36499C39.8259 1.91204 41.5156 0.896746 43.38 0.453422C46.2202 -0.276051 49.2069 -0.122652 51.9624 0.89423H52.1784L51.3612 5.66164C50.2788 5.31882 49.1745 5.05394 48.0564 4.86893C46.942 4.78071 45.8228 4.78071 44.7084 4.86893C44.306 4.95119 43.9349 5.15045 43.6392 5.44309C43.4959 5.56793 43.3807 5.7234 43.3018 5.89868C43.2228 6.07397 43.1819 6.26486 43.1819 6.45807C43.1819 6.65127 43.2228 6.84216 43.3018 7.01745C43.3807 7.19273 43.4959 7.3482 43.6392 7.47304C44.1515 7.9585 44.7113 8.38802 45.3096 8.75472C46.4256 9.45854 47.5848 10.0327 48.6576 10.7847C49.545 11.3429 50.281 12.1228 50.7972 13.052C51.3135 13.9812 51.5932 15.0295 51.6104 16.0996C51.6276 17.1697 51.3819 18.227 50.8958 19.1732C50.4098 20.1195 49.6994 20.9241 48.8304 21.5123C47.1195 22.8753 45.0639 23.7034 42.9084 23.8978C40.1503 24.2112 37.36 23.8009 34.7976 22.7051ZM25.272 23.5867L28.962 0.40897H34.8408L31.1508 23.5867H25.272Z" fill="white"/>
</svg>
